<?xml version="1.0" encoding="UTF-8"?>
<svg id="Camada_2" data-name="Camada 2" xmlns="http://www.w3.org/2000/svg" xmlns:xlink="http://www.w3.org/1999/xlink" viewBox="0 0 179.74 52.51">
  <defs>
    <style>
      .cls-1 {
        fill: url(#Gradiente_sem_nome);
      }

      .cls-2 {
        fill: #050614;
      }

      .cls-3 {
        clip-path: url(#clippath-1);
      }

      .cls-4 {
        clip-path: url(#clippath);
      }

      .cls-5 {
        fill: none;
      }

      .cls-6 {
        fill: url(#Gradiente_sem_nome-2);
      }
    </style>
    <clipPath id="clippath">
      <path class="cls-5" d="M12.61,34.32V7.65h27.87c3.2,0,5.8,2.6,5.8,5.8v20.87c0,3.2-2.6,5.8-5.8,5.8H18.41c-3.2,0-5.8-2.6-5.8-5.8M0,0S4.72,2.65,4.68,6.35c-.05,3.71,0,7.63,0,7.63v20.66c0,7.24,5.87,13.12,13.12,13.12h23.29c7.25,0,13.12-5.88,13.12-13.12V13.12c0-7.24-5.87-13.12-13.12-13.12H0Z"/>
    </clipPath>
    <linearGradient id="Gradiente_sem_nome" data-name="Gradiente sem nome" x1="0" y1="52.49" x2="1" y2="52.49" gradientTransform="translate(-3472.3 -12.17) rotate(90) scale(66.67 -66.67)" gradientUnits="userSpaceOnUse">
      <stop offset="0" stop-color="#e28eed"/>
      <stop offset=".23" stop-color="#e28eed"/>
      <stop offset=".52" stop-color="#3dcbff"/>
      <stop offset="1" stop-color="#39e4a3"/>
    </linearGradient>
    <clipPath id="clippath-1">
      <rect class="cls-5" width="179.74" height="52.51"/>
    </clipPath>
    <linearGradient id="Gradiente_sem_nome-2" data-name="Gradiente sem nome" x1="19.61" y1="28.98" x2="39.27" y2="28.98" gradientTransform="matrix(1, 0, 0, 1, 0, 0)" xlink:href="#Gradiente_sem_nome"/>
  </defs>
  <g id="Camada_1-2" data-name="Camada 1">
    <g>
      <g class="cls-4">
        <rect class="cls-1" x="-8.95" y="-12.17" width="72.11" height="72.11" transform="translate(-8.95 26.16) rotate(-45)"/>
      </g>
      <g class="cls-3">
        <path class="cls-6" d="M29.44,33.9c-5.42,0-9.83-4.41-9.83-9.83h4c0,3.22,2.62,5.83,5.83,5.83s5.83-2.61,5.83-5.83h4c0,5.42-4.41,9.83-9.83,9.83"/>
        <g>
          <path class="cls-2" d="M67.59,30.41h7.22v3.48h-11.61V11.99h4.39V30.41Z"/>
          <path class="cls-2" d="M77.09,13.7c-.51-.49-.77-1.1-.77-1.84s.26-1.34,.77-1.84c.51-.49,1.16-.74,1.93-.74s1.42,.25,1.93,.74c.51,.49,.77,1.1,.77,1.84s-.26,1.34-.77,1.84c-.51,.49-1.16,.74-1.93,.74s-1.42-.25-1.93-.74Zm4.1,2.81v17.39h-4.39V16.51h4.39Z"/>
          <path class="cls-2" d="M99.33,18.22c1.28,1.31,1.91,3.13,1.91,5.48v10.2h-4.39v-9.6c0-1.38-.35-2.44-1.04-3.19-.69-.74-1.63-1.11-2.83-1.11s-2.17,.37-2.87,1.11c-.7,.74-1.05,1.8-1.05,3.19v9.6h-4.39V16.51h4.39v2.17c.59-.75,1.33-1.34,2.25-1.77,.91-.43,1.91-.64,3-.64,2.07,0,3.75,.65,5.02,1.96Z"/>
          <path class="cls-2" d="M114.8,16.99c.98,.51,1.76,1.18,2.32,1.99v-2.48h4.43v17.52c0,1.61-.32,3.05-.97,4.32-.65,1.27-1.62,2.27-2.92,3.01-1.3,.74-2.87,1.11-4.71,1.11-2.47,0-4.49-.58-6.07-1.73-1.58-1.15-2.47-2.72-2.68-4.71h4.36c.23,.79,.73,1.43,1.49,1.9s1.69,.71,2.78,.71c1.28,0,2.31-.38,3.11-1.15,.79-.76,1.19-1.92,1.19-3.47v-2.7c-.56,.82-1.34,1.5-2.34,2.04-.99,.54-2.13,.82-3.41,.82-1.46,0-2.8-.38-4.02-1.13-1.21-.75-2.17-1.81-2.87-3.19-.7-1.37-1.05-2.95-1.05-4.72s.35-3.32,1.05-4.68c.7-1.36,1.65-2.41,2.86-3.14s2.55-1.1,4.03-1.1c1.3,0,2.44,.26,3.42,.77Zm1.69,5.46c-.42-.76-.98-1.35-1.69-1.76-.71-.41-1.48-.61-2.29-.61s-1.57,.2-2.26,.6c-.69,.4-1.25,.98-1.68,1.74-.43,.76-.64,1.67-.64,2.71s.21,1.96,.64,2.75c.43,.78,.99,1.39,1.69,1.8,.7,.42,1.45,.63,2.25,.63s1.58-.2,2.29-.61c.71-.41,1.28-.99,1.69-1.76,.42-.76,.63-1.68,.63-2.75s-.21-1.98-.63-2.75Z"/>
          <path class="cls-2" d="M141.45,16.51v17.39h-4.43v-2.2c-.57,.75-1.3,1.34-2.21,1.77s-1.9,.64-2.97,.64c-1.36,0-2.56-.29-3.61-.86-1.05-.58-1.87-1.42-2.46-2.54s-.89-2.45-.89-4v-10.2h4.39v9.57c0,1.38,.34,2.44,1.04,3.19,.69,.74,1.63,1.11,2.83,1.11s2.17-.37,2.86-1.11c.69-.74,1.04-1.8,1.04-3.19v-9.57h4.43Z"/>
          <path class="cls-2" d="M161,26.52h-12.71c.1,1.25,.54,2.24,1.32,2.95,.77,.71,1.73,1.07,2.86,1.07,1.63,0,2.79-.7,3.48-2.1h4.74c-.5,1.67-1.47,3.05-2.89,4.13-1.42,1.08-3.17,1.62-5.24,1.62-1.67,0-3.18-.37-4.5-1.11-1.33-.74-2.37-1.79-3.11-3.15-.74-1.36-1.11-2.93-1.11-4.71s.37-3.38,1.1-4.74c.73-1.36,1.76-2.41,3.08-3.14,1.32-.73,2.84-1.1,4.55-1.1s3.13,.36,4.44,1.07c1.31,.71,2.32,1.72,3.04,3.03,.72,1.31,1.08,2.81,1.08,4.5,0,.63-.04,1.19-.13,1.7Zm-4.43-2.95c-.02-1.13-.43-2.03-1.22-2.71-.8-.68-1.77-1.02-2.92-1.02-1.09,0-2,.33-2.75,.99-.74,.66-1.2,1.57-1.37,2.75h8.25Z"/>
          <path class="cls-2" d="M179.55,26.52h-12.71c.1,1.25,.54,2.24,1.32,2.95,.77,.71,1.73,1.07,2.86,1.07,1.63,0,2.79-.7,3.48-2.1h4.74c-.5,1.67-1.47,3.05-2.89,4.13-1.42,1.08-3.17,1.62-5.24,1.62-1.67,0-3.18-.37-4.5-1.11-1.33-.74-2.37-1.79-3.11-3.15-.74-1.36-1.11-2.93-1.11-4.71s.37-3.38,1.1-4.74c.73-1.36,1.76-2.41,3.08-3.14,1.32-.73,2.84-1.1,4.55-1.1s3.13,.36,4.44,1.07c1.31,.71,2.32,1.72,3.04,3.03,.72,1.31,1.08,2.81,1.08,4.5,0,.63-.04,1.19-.13,1.7Zm-4.43-2.95c-.02-1.13-.43-2.03-1.22-2.71-.8-.68-1.77-1.02-2.92-1.02-1.09,0-2,.33-2.75,.99-.74,.66-1.2,1.57-1.37,2.75h8.25Z"/>
        </g>
      </g>
    </g>
  </g>
</svg>